<svg width="16" height="16" viewBox="0 0 16 16" fill="none" xmlns="http://www.w3.org/2000/svg">
<g id="IconPullRequestSimple">
<path id="Union" d="M10.667 3.30078C11.7899 3.30078 12.7 4.21116 12.7002 5.33398V9.39551C13.8516 9.7042 14.7002 10.7522 14.7002 12.001C14.7002 13.4922 13.4912 14.7012 12 14.7012C10.5088 14.7012 9.2998 13.4922 9.2998 12.001C9.2998 10.7518 10.1488 9.70283 11.3008 9.39453V5.33398C11.3006 4.98435 11.0167 4.70117 10.667 4.70117H8.66699C8.28039 4.70117 7.9668 4.38758 7.9668 4.00098C7.9668 3.61438 8.28039 3.30078 8.66699 3.30078H10.667ZM4 1.30078C5.49117 1.30078 6.7002 2.50981 6.7002 4.00098C6.7002 5.24962 5.85146 6.29669 4.7002 6.60547V13.668C4.70002 14.0544 4.38649 14.3672 4 14.3672C3.61351 14.3672 3.29998 14.0544 3.2998 13.668V6.60547C2.14854 6.29669 1.2998 5.24962 1.2998 4.00098C1.2998 2.50981 2.50883 1.30078 4 1.30078ZM12 10.7012C11.282 10.7012 10.7002 11.283 10.7002 12.001C10.7002 12.719 11.282 13.3008 12 13.3008C12.718 13.3008 13.2998 12.719 13.2998 12.001C13.2998 11.283 12.718 10.7012 12 10.7012ZM4 2.70117C3.28203 2.70117 2.7002 3.28301 2.7002 4.00098C2.7002 4.71894 3.28203 5.30078 4 5.30078C4.71797 5.30078 5.2998 4.71894 5.2998 4.00098C5.2998 3.28301 4.71797 2.70117 4 2.70117Z" fill="#939393"/>
</g>
</svg>
