<svg width="16" height="16" viewBox="0 0 14.7109 14.6055" fill="none" xmlns="http://www.w3.org/2000/svg">
<path id="Union" d="M7.49512 10.9072C7.88154 10.9074 8.1952 11.221 8.19531 11.6074V13.9053C8.19531 14.2918 7.8816 14.6053 7.49512 14.6055C7.10852 14.6055 6.79492 14.2919 6.79492 13.9053V11.6074C6.79503 11.2209 7.10859 10.9072 7.49512 10.9072ZM3.84375 9.90039C4.11701 9.62739 4.55969 9.62748 4.83301 9.90039C5.10637 10.1738 5.10637 10.6173 4.83301 10.8906L3.14355 12.5801C2.87019 12.8534 2.42669 12.8534 2.15332 12.5801C1.88047 12.3068 1.88051 11.8641 2.15332 11.5908L3.84375 9.90039ZM10.0166 9.76172C10.29 9.48835 10.7335 9.48835 11.0068 9.76172L12.7012 11.4551C12.9745 11.7284 12.9744 12.1719 12.7012 12.4453C12.4278 12.7187 11.9843 12.7187 11.7109 12.4453L10.0166 10.751C9.74372 10.4777 9.74372 10.035 10.0166 9.76172ZM7.44043 5.30957C8.52235 5.30957 9.39941 6.18664 9.39941 7.26855C9.39941 8.35047 8.52235 9.22754 7.44043 9.22754C6.59445 9.22754 5.87568 8.69058 5.60156 7.93945H0.700195C0.313596 7.93945 0 7.62586 0 7.23926C9.01695e-06 6.85267 0.313602 6.53906 0.700195 6.53906H5.62305C5.91249 5.81865 6.61651 5.30957 7.44043 5.30957ZM14.0107 6.53906C14.3973 6.53911 14.7109 6.8527 14.7109 7.23926C14.7109 7.62583 14.3973 7.93941 14.0107 7.93945H11.7373C11.3507 7.93945 11.0371 7.62586 11.0371 7.23926C11.0371 6.85267 11.3507 6.53906 11.7373 6.53906H14.0107ZM11.6289 2.11523C11.9023 1.84204 12.3458 1.84192 12.6191 2.11523C12.8923 2.38855 12.8923 2.83213 12.6191 3.10547L10.8613 4.86328C10.588 5.13661 10.1445 5.13653 9.87109 4.86328C9.59773 4.58991 9.59773 4.14641 9.87109 3.87305L11.6289 2.11523ZM2.37207 2.11621C2.64543 1.843 3.088 1.84295 3.36133 2.11621L4.93945 3.69434C5.2127 3.96767 5.21266 4.41024 4.93945 4.68359C4.66609 4.95696 4.22259 4.95696 3.94922 4.68359L2.37207 3.10645C2.0987 2.83308 2.0987 2.38958 2.37207 2.11621ZM7.49512 0C7.8816 0.000131874 8.19531 0.313677 8.19531 0.700195V3.00391C8.19515 3.39029 7.8815 3.70299 7.49512 3.70312C7.10862 3.70312 6.79509 3.39037 6.79492 3.00391V0.700195C6.79492 0.313596 7.10852 0 7.49512 0Z" fill="#939393"/>
</svg>
